<svg height="511pt" viewBox="1 0 511.99963 511" width="511pt" xmlns="http://www.w3.org/2000/svg"><path d="m62.4375 64.5h.09375c5.519531 0 9.949219-4.476562 9.949219-10s-4.523438-10-10.042969-10c-5.523438 0-10 4.476562-10 10s4.476562 10 10 10zm0 0"/><path d="m107.9375 64.5h.09375c5.523438 0 9.953125-4.476562 9.953125-10s-4.523437-10-10.046875-10-10 4.476562-10 10 4.476562 10 10 10zm0 0"/><path d="m153.441406 64.5h.09375c5.519532 0 9.953125-4.476562 9.953125-10s-4.527343-10-10.046875-10c-5.523437 0-10 4.476562-10 10s4.476563 10 10 10zm0 0"/><path d="m231.746094 64.496094h139.238281c5.523437 0 10-4.476563 10-10 0-5.519532-4.476563-9.996094-10-9.996094h-139.238281c-5.519532 0-10 4.476562-10 9.996094 0 5.523437 4.476562 10 10 10zm0 0"/><path d="m423.984375 268.492188c-2.628906 0-5.210937 1.066406-7.070313 2.929687-1.859374 1.859375-2.929687 4.4375-2.929687 7.066406 0 2.632813 1.070313 5.210938 2.929687 7.070313 1.859376 1.859375 4.441407 2.929687 7.070313 2.929687s5.207031-1.070312 7.066406-2.929687 2.933594-4.4375 2.933594-7.070313c0-2.628906-1.070313-5.207031-2.933594-7.066406-1.859375-1.863281-4.4375-2.929687-7.066406-2.929687zm0 0"/><path d="m214.644531 176.492188h-12.453125c-5.523437 0-10 4.476562-10 10v71.996093c0 5.523438 4.476563 10 10 10h12.453125c25.359375 0 45.996094-20.632812 45.996094-45.996093 0-25.363282-20.632813-46-45.996094-46zm0 71.996093h-2.453125v-51.996093h2.453125c14.335938 0 25.996094 11.664062 25.996094 26 0 14.335937-11.660156 25.996093-25.996094 25.996093zm0 0"/><path d="m147.046875 183.304688c-1.367187-4.070313-5.183594-6.8125-9.476563-6.8125-4.292968 0-8.109374 2.742187-9.476562 6.8125l-24.226562 71.996093c-1.761719 5.234375 1.050781 10.90625 6.285156 12.667969 5.238281 1.761719 10.90625-1.054688 12.667968-6.289062l.738282-2.191407h28.023437l.734375 2.191407c1.40625 4.175781 5.300782 6.8125 9.476563 6.8125 1.058593 0 2.132812-.167969 3.191406-.523438 5.234375-1.761719 8.050781-7.433594 6.285156-12.667969zm-16.761719 56.1875 7.285156-21.644532 7.28125 21.644532zm0 0"/><path d="m509.070312 427.6875-67.992187-67.992188 23.964844-23.960937c2.5-2.503906 3.496093-6.144531 2.609375-9.570313-.882813-3.425781-3.511719-6.132812-6.914063-7.109374l-144.75-41.6875v-130.875c0-5.519532-4.476562-9.996094-10-9.996094h-247.992187c-5.519532 0-9.996094 4.476562-9.996094 9.996094v151.996093c0 5.523438 4.476562 10 9.996094 10h216.589844l17.28125 59.996094h-261.867188c-5.515625 0-10-4.484375-10-10v-249.988281h393.984375v129.996094c0 5.519531 4.476563 9.996093 10 9.996093 5.519531 0 10-4.476562 10-9.996093v-207.992188c0-16.542969-13.457031-30-30-30h-373.984375c-16.542969 0-30 13.457031-30 30v327.984375c0 16.542969 13.457031 30 30 30h267.625l20.945312 72.734375c.980469 3.402344 3.683594 6.03125 7.109376 6.914062 3.421874.882813 7.066406-.105468 9.570312-2.609374l23.960938-23.960938 67.992187 67.992188c1.875 1.875 4.417969 2.925781 7.070313 2.925781 2.652343 0 5.195312-1.050781 7.070312-2.925781l67.726562-67.726563c3.90625-3.90625 3.90625-10.238281 0-14.140625zm-479.070312-407.1875h373.984375c5.511719 0 10 4.484375 10 10v57.996094h-393.984375v-57.996094c0-5.515625 4.484375-10 10-10zm37.996094 267.988281v-131.996093h227.992187v115.113281l-17.535156-5.050781c-3.5-1.003907-7.265625-.035157-9.839844 2.539062s-3.542969 6.34375-2.539062 9.839844l2.753906 9.554687zm366.277344 199.851563-67.988282-67.992188c-1.953125-1.953125-4.511718-2.929687-7.070312-2.929687-2.5625 0-5.121094.976562-7.074219 2.929687l-19.042969 19.046875-42.800781-148.613281 148.613281 42.796875-19.042968 19.046875c-1.875 1.871094-2.929688 4.417969-2.929688 7.070312 0 2.648438 1.054688 5.195313 2.929688 7.070313l67.992187 67.988281zm0 0"/><path d="m127.765625 348.484375c5.523437 0 10-4.476563 10-9.996094 0-5.523437-4.476563-10-10-10h-68.339844c-5.523437 0-10 4.476563-10 10 0 5.519531 4.476563 9.996094 10 9.996094zm0 0"/><path d="m174.332031 345.558594c1.859375-1.859375 2.929688-4.441406 2.929688-7.070313 0-2.628906-1.066407-5.210937-2.929688-7.070312-1.859375-1.859375-4.4375-2.929688-7.070312-2.929688-2.628907 0-5.207031 1.070313-7.066407 2.929688-1.859374 1.859375-2.929687 4.441406-2.929687 7.070312 0 2.628907 1.066406 5.210938 2.929687 7.070313 1.859376 1.859375 4.4375 2.929687 7.066407 2.929687 2.632812 0 5.210937-1.070312 7.070312-2.929687zm0 0"/></svg>