<?xml version="1.0" encoding="iso-8859-1"?>
<!-- Generator: Adobe Illustrator 19.0.0, SVG Export Plug-In . SVG Version: 6.00 Build 0)  -->
<svg version="1.1" id="Capa_1" xmlns="http://www.w3.org/2000/svg" xmlns:xlink="http://www.w3.org/1999/xlink" x="0px" y="0px"
	 viewBox="0 0 512.001 512.001" style="enable-background:new 0 0 512.001 512.001;" xml:space="preserve">
<g>
	<g>
		<path d="M265.599,403.124H15.045C6.736,403.124,0,409.86,0,418.168c0,8.309,6.736,15.045,15.045,15.045h250.555
			c8.309,0,15.045-6.736,15.045-15.045C280.644,409.86,273.908,403.124,265.599,403.124z"/>
	</g>
</g>
<g>
	<g>
		<path d="M295.386,339.306H15.045C6.736,339.306,0,346.041,0,354.35s6.736,15.045,15.045,15.045h280.341
			c8.309,0,15.045-6.736,15.045-15.045S303.694,339.306,295.386,339.306z"/>
	</g>
</g>
<g>
	<g>
		<path d="M253.436,276.23H15.045C6.736,276.23,0,282.966,0,291.275s6.736,15.045,15.045,15.045h238.392
			c8.309,0,15.045-6.736,15.045-15.045S261.745,276.23,253.436,276.23z"/>
	</g>
</g>
<g>
	<g>
		<path d="M287.12,212.307H15.045C6.736,212.307,0,219.043,0,227.352c0,8.309,6.736,15.045,15.045,15.045H287.12
			c8.309,0,15.045-6.736,15.045-15.045C302.165,219.043,295.429,212.307,287.12,212.307z"/>
	</g>
</g>
<g>
	<g>
		<path d="M190.835,149.232H15.045C6.736,149.232,0,155.968,0,164.277s6.736,15.045,15.045,15.045h175.79
			c8.309,0,15.045-6.736,15.045-15.045S199.143,149.232,190.835,149.232z"/>
	</g>
</g>
<g>
	<g>
		<path d="M219.921,85.168H15.045C6.736,85.168,0,91.904,0,100.213c0,8.309,6.736,15.045,15.045,15.045h204.876
			c8.309,0,15.045-6.736,15.045-15.045C234.966,91.904,228.23,85.168,219.921,85.168z"/>
	</g>
</g>
<g>
	<g>
		<path d="M497.514,112.417l-75.883-75.884l0.172-0.172c-9.699-9.698-22.451-14.523-35.19-14.482
			c-12.747-0.046-25.508,4.779-35.211,14.483c-0.632,0.632-1.182,1.312-1.677,2.019l-74.034,74.036
			c-19.315,19.315-19.315,50.743,0,70.059c9.658,9.658,22.343,14.487,35.03,14.487c9.255,0,18.505-2.583,26.584-7.723v251.342
			c0,27.316,22.223,49.54,49.54,49.54c27.317,0,49.54-22.223,49.54-49.54V189.539c7.965,4.94,17.031,7.423,26.103,7.423
			c12.686,0,25.372-4.828,35.03-14.487C516.829,163.16,516.829,131.732,497.514,112.417z M476.238,161.199
			c-7.585,7.583-19.923,7.583-27.507,0l-16.754-16.754c-0.351-0.352-0.721-0.684-1.106-1c-0.169-0.138-0.347-0.259-0.521-0.389
			c-0.219-0.164-0.433-0.334-0.662-0.486c-0.212-0.141-0.431-0.264-0.648-0.394c-0.204-0.122-0.404-0.251-0.614-0.363
			c-0.222-0.118-0.449-0.219-0.676-0.325c-0.219-0.103-0.434-0.213-0.659-0.306c-0.22-0.09-0.443-0.163-0.666-0.244
			c-0.241-0.086-0.478-0.179-0.724-0.254c-0.222-0.067-0.447-0.116-0.671-0.172c-0.252-0.064-0.5-0.134-0.757-0.185
			c-0.256-0.051-0.513-0.08-0.771-0.117c-0.229-0.033-0.453-0.076-0.685-0.099c-0.466-0.046-0.934-0.068-1.402-0.071
			c-0.027,0-0.053-0.004-0.08-0.004c-0.033,0-0.065,0.005-0.097,0.005c-0.461,0.003-0.924,0.024-1.383,0.07
			c-0.238,0.023-0.468,0.067-0.703,0.101c-0.251,0.036-0.503,0.065-0.751,0.114c-0.264,0.052-0.52,0.124-0.778,0.191
			c-0.217,0.055-0.434,0.102-0.649,0.167c-0.255,0.077-0.5,0.172-0.749,0.262c-0.214,0.077-0.429,0.147-0.64,0.235
			c-0.235,0.097-0.46,0.212-0.689,0.32c-0.216,0.102-0.433,0.198-0.645,0.311c-0.224,0.12-0.437,0.256-0.655,0.387
			c-0.203,0.122-0.409,0.237-0.608,0.369c-0.25,0.167-0.485,0.352-0.725,0.533c-0.151,0.115-0.309,0.22-0.456,0.342
			c-0.771,0.633-1.479,1.34-2.111,2.112c-0.118,0.143-0.22,0.296-0.331,0.443c-0.186,0.244-0.373,0.484-0.544,0.74
			c-0.128,0.193-0.239,0.392-0.357,0.589c-0.135,0.224-0.275,0.443-0.398,0.674c-0.109,0.205-0.201,0.415-0.3,0.623
			c-0.112,0.236-0.23,0.469-0.33,0.711c-0.083,0.203-0.15,0.409-0.225,0.615c-0.093,0.257-0.192,0.512-0.271,0.774
			c-0.061,0.204-0.106,0.411-0.159,0.618c-0.069,0.269-0.143,0.536-0.198,0.809c-0.046,0.233-0.072,0.467-0.107,0.702
			c-0.037,0.251-0.083,0.498-0.108,0.752c-0.04,0.414-0.056,0.829-0.063,1.246c-0.001,0.078-0.012,0.153-0.012,0.232v285.501
			c0,10.725-8.726,19.451-19.451,19.451s-19.451-8.726-19.451-19.451V154.606c0-0.376-0.029-0.745-0.056-1.115
			c-0.008-0.112-0.006-0.225-0.017-0.336c-0.034-0.36-0.094-0.712-0.154-1.064c-0.022-0.13-0.034-0.261-0.059-0.39
			c-0.067-0.344-0.157-0.679-0.248-1.014c-0.037-0.137-0.065-0.277-0.106-0.414c-0.095-0.319-0.212-0.628-0.328-0.937
			c-0.056-0.151-0.104-0.305-0.167-0.454c-0.12-0.293-0.26-0.576-0.398-0.859c-0.077-0.159-0.146-0.321-0.231-0.478
			c-0.15-0.283-0.32-0.553-0.487-0.824c-0.09-0.146-0.173-0.298-0.269-0.441c-0.212-0.318-0.443-0.622-0.678-0.922
			c-0.068-0.087-0.127-0.179-0.198-0.265c-0.638-0.78-1.352-1.494-2.132-2.133c-0.11-0.09-0.228-0.167-0.341-0.255
			c-0.275-0.213-0.551-0.424-0.841-0.618c-0.177-0.117-0.359-0.219-0.54-0.328c-0.239-0.145-0.474-0.294-0.721-0.426
			c-0.197-0.105-0.399-0.193-0.599-0.289c-0.243-0.116-0.482-0.237-0.733-0.34c-0.202-0.083-0.407-0.149-0.611-0.224
			c-0.257-0.093-0.511-0.192-0.775-0.271c-0.211-0.063-0.424-0.109-0.637-0.164c-0.262-0.067-0.521-0.139-0.787-0.193
			c-0.254-0.05-0.51-0.08-0.766-0.117c-0.229-0.033-0.453-0.076-0.685-0.099c-0.989-0.097-1.985-0.097-2.974,0
			c-0.195,0.019-0.382,0.056-0.575,0.083c-0.296,0.041-0.591,0.076-0.885,0.135c-0.224,0.044-0.441,0.107-0.661,0.161
			c-0.257,0.063-0.516,0.12-0.769,0.198c-0.213,0.065-0.417,0.145-0.626,0.219c-0.257,0.09-0.513,0.176-0.765,0.28
			c-0.188,0.078-0.366,0.169-0.55,0.255c-0.264,0.122-0.529,0.241-0.786,0.379c-0.164,0.088-0.319,0.19-0.479,0.283
			c-0.264,0.154-0.528,0.305-0.783,0.475c-0.158,0.106-0.306,0.227-0.46,0.338c-0.243,0.177-0.487,0.347-0.721,0.54
			c-0.206,0.169-0.396,0.356-0.593,0.536c-0.164,0.151-0.337,0.289-0.496,0.449L324.47,161.2c-7.585,7.583-19.923,7.583-27.508,0
			c-7.583-7.583-7.583-19.923,0-27.507l76.055-76.055c3.75-3.75,8.664-5.638,13.589-5.68c4.922,0.044,9.829,1.933,13.576,5.679
			l76.055,76.054C483.821,141.276,483.821,153.616,476.238,161.199z"/>
	</g>
</g>
<g>
</g>
<g>
</g>
<g>
</g>
<g>
</g>
<g>
</g>
<g>
</g>
<g>
</g>
<g>
</g>
<g>
</g>
<g>
</g>
<g>
</g>
<g>
</g>
<g>
</g>
<g>
</g>
<g>
</g>
</svg>
