<svg height="512" viewBox="0 0 60 60" width="512" xmlns="http://www.w3.org/2000/svg"><g id="Page-1" fill="none" fill-rule="evenodd"><g id="040---Browser-Survey" fill="rgb(0,0,0)" fill-rule="nonzero"><path id="Shape" d="m55 0h-50c-2.76007596.00325114-4.99674886 2.23992404-5 5v50c.00325114 2.760076 2.23992404 4.9967489 5 5h50c2.760076-.0032511 4.9967489-2.239924 5-5v-50c-.0032511-2.76007596-2.239924-4.99674886-5-5zm-50 2h50c1.6561003.00181871 2.9981813 1.34389967 3 3v7h-56v-7c.00181871-1.65610033 1.34389967-2.99818129 3-3zm50 56h-50c-1.65610033-.0018187-2.99818129-1.3438997-3-3v-41h56v41c-.0018187 1.6561003-1.3438997 2.9981813-3 3z"/><path id="Shape" d="m7 10c1.65685425 0 3-1.34314575 3-3s-1.34314575-3-3-3-3 1.34314575-3 3c.00181871 1.65610033 1.34389967 2.99818129 3 3zm0-4c.55228475 0 1 .44771525 1 1s-.44771525 1-1 1-1-.44771525-1-1c.0004962-.55207909.44792091-.9995038 1-1z"/><path id="Shape" d="m15 10c1.6568542 0 3-1.34314575 3-3s-1.3431458-3-3-3-3 1.34314575-3 3c.0018187 1.65610033 1.3438997 2.99818129 3 3zm0-4c.5522847 0 1 .44771525 1 1s-.4477153 1-1 1-1-.44771525-1-1c.0004962-.55207909.4479209-.9995038 1-1z"/><path id="Shape" d="m23 10c1.6568542 0 3-1.34314575 3-3s-1.3431458-3-3-3-3 1.34314575-3 3c.0018187 1.65610033 1.3438997 2.99818129 3 3zm0-4c.5522847 0 1 .44771525 1 1s-.4477153 1-1 1-1-.44771525-1-1c.0004962-.55207909.4479209-.9995038 1-1z"/><path id="Shape" d="m40 33h8c1.1040441-.0012675 1.9987325-.8959559 2-2v-8c-.0012675-1.1040441-.8959559-1.9987325-2-2h-8c-1.1040441.0012675-1.9987325.8959559-2 2v8c.0012675 1.1040441.8959559 1.9987325 2 2zm0-10h8v8h-8z"/><path id="Shape" d="m49 46c-.5522847 0-1 .4477153-1 1v2h-8v-8h5c.5522847 0 1-.4477153 1-1s-.4477153-1-1-1h-5c-1.1040441.0012675-1.9987325.8959559-2 2v8c.0012675 1.1040441.8959559 1.9987325 2 2h8c1.1040441-.0012675 1.9987325-.8959559 2-2v-2c0-.5522847-.4477153-1-1-1z"/><path id="Shape" d="m9 24h8c.5522847 0 1-.4477153 1-1s-.4477153-1-1-1h-8c-.55228475 0-1 .4477153-1 1s.44771525 1 1 1z"/><path id="Shape" d="m33 22h-12c-.5522847 0-1 .4477153-1 1s.4477153 1 1 1h12c.5522847 0 1-.4477153 1-1s-.4477153-1-1-1z"/><path id="Shape" d="m33 26h-24c-.55228475 0-1 .4477153-1 1s.44771525 1 1 1h24c.5522847 0 1-.4477153 1-1s-.4477153-1-1-1z"/><path id="Shape" d="m9 32h12c.5522847 0 1-.4477153 1-1s-.4477153-1-1-1h-12c-.55228475 0-1 .4477153-1 1s.44771525 1 1 1z"/><path id="Shape" d="m33 30h-8c-.5522847 0-1 .4477153-1 1s.4477153 1 1 1h8c.5522847 0 1-.4477153 1-1s-.4477153-1-1-1z"/><path id="Shape" d="m9 42h8c.5522847 0 1-.4477153 1-1s-.4477153-1-1-1h-8c-.55228475 0-1 .4477153-1 1s.44771525 1 1 1z"/><path id="Shape" d="m33 40h-12c-.5522847 0-1 .4477153-1 1s.4477153 1 1 1h12c.5522847 0 1-.4477153 1-1s-.4477153-1-1-1z"/><path id="Shape" d="m33 44h-24c-.55228475 0-1 .4477153-1 1s.44771525 1 1 1h24c.5522847 0 1-.4477153 1-1s-.4477153-1-1-1z"/><path id="Shape" d="m21 48h-12c-.55228475 0-1 .4477153-1 1s.44771525 1 1 1h12c.5522847 0 1-.4477153 1-1s-.4477153-1-1-1z"/><path id="Shape" d="m33 48h-8c-.5522847 0-1 .4477153-1 1s.4477153 1 1 1h8c.5522847 0 1-.4477153 1-1s-.4477153-1-1-1z"/><path id="Shape" d="m50.2 37.4-5.3086 7.0776-1.1844-1.1846c-.3923789-.3789722-1.0160848-.3735524-1.4018186.0121814s-.3911536 1.0094397-.0121814 1.4018186l2 2c.187393.1876986.4417702.2931194.707.293.0234 0 .0469-.001.0713-.0024.2890915-.0204991.555013-.1655937.7287-.3976l6-8c.3313708-.4418278.2418278-1.0686291-.2-1.4-.4418278-.3313708-1.0686291-.2418278-1.4.2z"/></g></g></svg>